<?xml version="1.0" encoding="iso-8859-1"?>
<!-- Generator: Adobe Illustrator 16.0.4, SVG Export Plug-In . SVG Version: 6.00 Build 0)  -->
<!DOCTYPE svg PUBLIC "-//W3C//DTD SVG 1.1//EN" "http://www.w3.org/Graphics/SVG/1.1/DTD/svg11.dtd">
<svg version="1.1" id="Layer_1" xmlns="http://www.w3.org/2000/svg" xmlns:xlink="http://www.w3.org/1999/xlink" x="0px" y="0px"
	 width="32px" height="32px" viewBox="0 0 32 32" style="enable-background:new 0 0 32 32;fill:#2B5D80;" xml:space="preserve">
<path d="M30.162,3.741c-2.404-3.18-6.688-4.528-10.424-3.279c-1.598,0.536-2.883,1.512-3.828,2.792
	c-0.925-1.166-2.147-2.06-3.649-2.563C8.526-0.56,4.242,0.787,1.838,3.968c-2.332,3.089-2.022,6.004-1.354,7.906
	C1.22,13.963,2.883,15.99,4.118,16.3c0.979,0.24,1.979-0.348,2.227-1.332c0.215-0.854-0.208-1.723-0.97-2.095
	c-0.311-0.27-1.404-1.46-1.651-3.104C3.537,8.528,3.88,7.356,4.768,6.181c1.444-1.909,4.104-2.752,6.326-2.011
	c1.98,0.665,3.07,2.453,3.07,5.033v14.841v0.229c0,1.015,0.821,1.835,1.836,1.835c1.016,0,1.836-0.82,1.836-1.835v-0.229V9.204
	V8.978c0-2.582,1.09-4.369,3.07-5.034c2.225-0.742,4.882,0.101,6.326,2.01c0.888,1.176,1.229,2.35,1.043,3.587
	c-0.248,1.646-1.34,2.836-1.65,3.104c-0.762,0.373-1.186,1.24-0.971,2.096c0.248,0.986,1.244,1.581,2.228,1.332
	c1.235-0.31,2.897-2.337,3.634-4.426C32.184,9.743,32.494,6.827,30.162,3.741z"/>
</svg>
