<?xml version="1.0" encoding="iso-8859-1"?>
<!-- Generator: Adobe Illustrator 16.0.4, SVG Export Plug-In . SVG Version: 6.00 Build 0)  -->
<!DOCTYPE svg PUBLIC "-//W3C//DTD SVG 1.1//EN" "http://www.w3.org/Graphics/SVG/1.1/DTD/svg11.dtd">
<svg version="1.1" id="Layer_1" xmlns="http://www.w3.org/2000/svg" xmlns:xlink="http://www.w3.org/1999/xlink" x="0px" y="0px"
	 width="31.998px" height="31.998px" viewBox="0 0 31.998 31.998" style="enable-background:new 0 0 31.998 31.998;fill:#2B5D80;"
	 xml:space="preserve">
<path d="M25.262,6.771c-2.213,0-4.164,1.088-5.394,2.741c-0.616-1.326-1.22-3.132-1.22-5.142c0-2.469-2.002-4.129-4.982-4.129
	c-1.527,0-3.107,0.462-4.193,1.345C8.143,0.57,6.215,0,4.648,0C3.402,0,2.317,0.337,1.512,0.974C0.822,1.52,0,2.552,0,4.372
	c0,0.819,0.664,1.481,1.482,1.481s1.482-0.662,1.482-1.481c0-0.722,0.203-1.23,1.195-1.375C5.921,2.733,7.936,3.88,8.088,4.372
	v12.105c0,0.818,0.664,1.481,1.482,1.481c0.818,0,1.481-0.663,1.481-1.481V4.372c0-0.522,1.206-1.165,2.614-1.165
	c0.649,0,1.234,0.142,1.604,0.385c0.294,0.195,0.413,0.423,0.413,0.78c0,4.285,2.095,7.705,2.873,8.828
	c-0.006,0.104-0.031,0.204-0.031,0.31c0,1.056,0.265,2.04,0.697,2.93c-0.908,1.381-3.453,4.526-7.861,4.621
	c-0.818,0.018-1.468,0.693-1.451,1.514c0.018,0.808,0.678,1.45,1.482,1.45c0.01,0,0.021,0,0.031,0
	c5.055-0.107,8.215-3.201,9.738-5.204c1.141,0.881,2.551,1.429,4.1,1.429c3.717,0,6.738-3.022,6.738-6.737
	C31.998,9.796,28.979,6.771,25.262,6.771z M25.262,17.284c-2.08,0-3.773-1.693-3.773-3.774c0-2.08,1.693-3.773,3.773-3.773
	c2.082,0,3.775,1.693,3.775,3.773C29.037,15.591,27.344,17.284,25.262,17.284z"/>
</svg>
