<?xml version="1.0" encoding="iso-8859-1"?>
<!-- Generator: Adobe Illustrator 16.0.4, SVG Export Plug-In . SVG Version: 6.00 Build 0)  -->
<!DOCTYPE svg PUBLIC "-//W3C//DTD SVG 1.1//EN" "http://www.w3.org/Graphics/SVG/1.1/DTD/svg11.dtd">
<svg version="1.1" id="Layer_1" xmlns="http://www.w3.org/2000/svg" xmlns:xlink="http://www.w3.org/1999/xlink" x="0px" y="0px" width="32px" height="32px" viewBox="0 0 32 32" style="enable-background:new 0 0 32 32;fill:#2B5D80;" xml:space="preserve">
<path d="M29.988,0h-0.005c-0.276,0-6.46,0.118-10.985,7.858c-0.91-0.225-1.855-0.359-2.834-0.359c-1.086,0-2.135,0.16-3.134,0.437
	C8.497,0.122,2.278,0,2.001,0C1.999,0,1.997,0,1.995,0C0.897,0,0.02,0.879,0,1.975c-0.018,1.098,0.862,2.009,1.962,2.046
	c0.181,0.006,4.14,0.216,7.417,5.645c-3.011,2.135-4.986,5.641-4.986,9.605c0,6.49,5.28,11.771,11.771,11.771
	c6.492,0,11.774-5.28,11.774-11.771c0-4.069-2.077-7.662-5.224-9.777c3.231-5.218,7.068-5.463,7.306-5.473
	C31.121,4.005,32.003,3.108,32,2.004C31.998,0.897,31.098,0,29.988,0z M16.163,27.02c-4.272,0-7.749-3.476-7.749-7.748
	c0-4.273,3.477-7.751,7.749-7.751c4.275,0,7.752,3.478,7.752,7.751C23.916,23.544,20.438,27.02,16.163,27.02z"/>
</svg>
