<?xml version="1.0" encoding="iso-8859-1"?>
<!-- Generator: Adobe Illustrator 16.0.4, SVG Export Plug-In . SVG Version: 6.00 Build 0)  -->
<!DOCTYPE svg PUBLIC "-//W3C//DTD SVG 1.1//EN" "http://www.w3.org/Graphics/SVG/1.1/DTD/svg11.dtd">
<svg version="1.1" id="Layer_1" xmlns="http://www.w3.org/2000/svg" xmlns:xlink="http://www.w3.org/1999/xlink" x="0px" y="0px"
	 width="38.816px" height="38.816px" viewBox="-6.816 -6.815 38.816 38.816"
	 style="enable-background:new -6.816 -6.815 38.816 38.816;fill:#2B5D80;" xml:space="preserve">
<path d="M18.244,23.902V8.266c2.225-0.496,3.968-1.356,5.188-2.59c1.69-1.711,1.757-3.476,1.753-3.813
	c-0.013-1.007-0.815-1.777-1.821-1.813c-1.017-0.029-1.863,0.778-1.942,1.781c-0.085,1.098-1.918,3.171-8.234,3.171
	c-6.448,0-8.56-2.188-8.778-3.354C4.28,0.645,3.386-0.106,2.364,0.013C1.329,0.11,0.569,1.027,0.666,2.063
	c0.021,0.209,0.482,4.043,6.009,5.815v16.054c-6.151,1.666-6.646,5.791-6.667,6.01c-0.095,1.004,0.625,1.863,1.625,1.998
	c0.997,0.135,1.936-0.58,2.114-1.572c0.208-1.165,2.313-3.365,8.78-3.365c6.316,0,8.149,2.073,8.234,3.096
	c-0.013,1.038,0.82,1.892,1.859,1.903c0.007,0,0.016,0,0.022,0c1.028,0,1.87-0.829,1.882-1.86c0.003-0.336-0.063-2.101-1.753-3.812
	C21.678,25.221,20.154,24.416,18.244,23.902z M10.439,23.311V8.62c0.849,0.087,1.744,0.147,2.747,0.147
	c0.446,0,0.87-0.019,1.294-0.037v14.577c-0.626-0.043-1.272-0.07-1.952-0.07C11.789,23.236,11.093,23.262,10.439,23.311z"/>
</svg>
