<?xml version="1.0" encoding="iso-8859-1"?>
<!-- Generator: Adobe Illustrator 16.0.4, SVG Export Plug-In . SVG Version: 6.00 Build 0)  -->
<!DOCTYPE svg PUBLIC "-//W3C//DTD SVG 1.1//EN" "http://www.w3.org/Graphics/SVG/1.1/DTD/svg11.dtd">
<svg version="1.1" id="Layer_1" xmlns="http://www.w3.org/2000/svg" xmlns:xlink="http://www.w3.org/1999/xlink" x="0px" y="0px"
	 width="31.998px" height="31.998px" viewBox="0 0 31.998 31.998" style="enable-background:new 0 0 31.998 31.998;fill:#2B5D80;"
	 xml:space="preserve">
<path d="M31.455,17.805l-4.507-3.229c-0.399-0.286-0.921-0.326-1.354-0.103c-0.435,0.223-0.707,0.67-0.707,1.159v1.984
	c-0.863-0.207-2.01-0.649-2.01-1.333V4.252C22.877,1.348,19.871,0,17.975,0c-1.271,0-2.454,0.479-3.333,1.351
	c-0.001,0.001-0.003,0.003-0.005,0.004C13.706,0.466,12.47,0,11.27,0c-1.269,0-2.452,0.479-3.33,1.351
	C7.933,1.356,7.927,1.366,7.92,1.372C7.022,0.622,5.9,0.216,4.8,0.216c-1.27,0-2.453,0.479-3.331,1.351C0.799,2.231,0,3.437,0,5.397
	c0,0.895,0.724,1.617,1.618,1.617S3.235,6.29,3.235,5.397c0-1.806,1.198-1.945,1.565-1.945c0.77,0,1.669,0.509,1.669,1.945v13.685
	c0,0.894,0.723,1.617,1.617,1.617s1.617-0.725,1.617-1.617v-13.9c0-1.806,1.199-1.946,1.566-1.946c2.192,0,1.903,2.105,1.903,2.734
	s0,13.112,0,13.112c0,0.894,0.724,1.617,1.617,1.617c0.895,0,1.618-0.725,1.618-1.617v-13.9c0-1.806,1.196-1.946,1.565-1.946
	c0.77,0,1.668,0.51,1.668,1.946v11.104c0,3.082,3.139,4.322,5.243,4.622v1.893c0,0.512,0.3,0.975,0.765,1.187
	c0.174,0.079,0.355,0.117,0.537,0.117c0.311,0,0.616-0.11,0.858-0.321l4.507-3.937c0.301-0.261,0.465-0.646,0.445-1.044
	C31.979,18.401,31.779,18.035,31.455,17.805z"/>
</svg>
