<?xml version="1.0" encoding="iso-8859-1"?>
<!-- Generator: Adobe Illustrator 16.0.4, SVG Export Plug-In . SVG Version: 6.00 Build 0)  -->
<!DOCTYPE svg PUBLIC "-//W3C//DTD SVG 1.1//EN" "http://www.w3.org/Graphics/SVG/1.1/DTD/svg11.dtd">
<svg version="1.1" id="Layer_1" xmlns="http://www.w3.org/2000/svg" xmlns:xlink="http://www.w3.org/1999/xlink" x="0px" y="0px"
	 width="34.852px" height="34.852px" viewBox="-3.108 -3.11 34.852 34.852"
	 style="enable-background:new -3.108 -3.11 34.852 34.852;fill:#2B5D80;" xml:space="preserve">
<path d="M28.542,24.158c-0.238-1.158-1.373-1.91-2.527-1.67c-1.16,0.236-1.906,1.368-1.668,2.527c0.053,0.271-2.26,3.369-3.908,2.63
	c-1.647-0.74-1.771-3.751-0.705-5.126c2.334-3.002,7.604-10.612,6.123-16.393c-0.586-2.287-2.148-4.036-4.563-5.082
	c-3.658-1.482-6.749-1.389-9.193,0.283c-3.428,2.344-4.309,7.04-4.53,9.608c-0.014,0-0.025-0.005-0.039-0.005
	C3.379,10.93,0,14.309,0,18.462c0,4.152,3.379,7.531,7.532,7.531c4.152,0,7.531-3.379,7.531-7.531c0-2.571-1.299-4.842-3.272-6.202
	c0.037-1.81,0.56-5.921,2.731-7.401c1.188-0.802,2.918-0.754,5.113,0.138c1.521,0.657,1.91,1.567,2.07,2.194
	c0.681,2.655-1.421,7.641-5.354,12.701c-2.954,3.801-2.44,7.937,1.371,11.065c2.258,1.416,5.692,0.635,7.031-0.174
	C26.866,29.512,29.125,27.012,28.542,24.158z M7.532,21.708c-1.791,0-3.247-1.457-3.247-3.246c0-1.791,1.456-3.248,3.247-3.248
	s3.247,1.457,3.247,3.248C10.778,20.251,9.322,21.708,7.532,21.708z"/>
</svg>
