<?xml version="1.0" encoding="iso-8859-1"?>
<!-- Generator: Adobe Illustrator 16.0.4, SVG Export Plug-In . SVG Version: 6.00 Build 0)  -->
<!DOCTYPE svg PUBLIC "-//W3C//DTD SVG 1.1//EN" "http://www.w3.org/Graphics/SVG/1.1/DTD/svg11.dtd">
<svg version="1.1" id="Layer_1" xmlns="http://www.w3.org/2000/svg" xmlns:xlink="http://www.w3.org/1999/xlink" x="0px" y="0px"
	 width="32px" height="32px" viewBox="0 5.536 32 32" style="enable-background:new 0 5.536 32 32;fill:#2B5D80;" xml:space="preserve">
<g>
	<path d="M1.631,12.874c1.703,0,2.789-1.314,3.662-2.376C6.166,9.441,6.748,8.8,7.474,8.8c0.382,0,0.688,0.412,1.356,1.574
		c0.775,1.35,1.944,3.386,4.486,3.386c2.623,0,3.706-2.061,4.42-3.422c0.312-0.596,0.703-1.336,0.947-1.336
		c0.422,0,1.055,1.006,1.516,1.737c0.867,1.373,1.943,3.086,3.988,3.086c1.994,0,3.48-1.663,4.797-3.132
		c0.473-0.528,1.177-1.312,1.514-1.493C31.339,9.136,32,8.432,32,7.575c0-0.899-0.729-1.632-1.63-1.632
		c-1.511,0-2.63,1.25-3.813,2.574c-0.641,0.716-1.832,2.045-2.373,2.045c-0.283-0.067-0.918-1.078-1.225-1.562
		c-0.866-1.376-2.053-3.262-4.275-3.262c-2.215,0-3.188,1.854-3.833,3.079c-0.725,1.38-0.996,1.678-1.533,1.678
		c-0.561,0-0.905-0.438-1.658-1.747c-0.781-1.355-1.849-3.213-4.186-3.213c-2.316,0-3.693,1.669-4.697,2.889
		c-0.342,0.412-0.91,1.104-1.163,1.188C0.722,9.622,0,10.349,0,11.243C0,12.144,0.73,12.874,1.631,12.874z"/>
	<path d="M30.37,16.513c-1.511,0-2.63,1.25-3.813,2.573c-0.641,0.717-1.832,2.046-2.373,2.046c-0.283-0.068-0.918-1.078-1.225-1.562
		c-0.866-1.376-2.053-3.262-4.275-3.262c-2.215,0-3.188,1.854-3.833,3.08c-0.725,1.379-0.996,1.677-1.533,1.677
		c-0.561,0-0.905-0.438-1.658-1.747c-0.779-1.355-1.848-3.214-4.185-3.214c-2.315,0-3.692,1.669-4.696,2.889
		c-0.342,0.414-0.91,1.104-1.163,1.188C0.722,20.191,0,20.917,0,21.811c0,0.899,0.73,1.631,1.631,1.631
		c1.703,0,2.789-1.315,3.662-2.376c0.873-1.057,1.455-1.699,2.181-1.699c0.382,0,0.688,0.413,1.356,1.575
		c0.775,1.35,1.944,3.385,4.486,3.385c2.623,0,3.706-2.06,4.42-3.42c0.312-0.597,0.703-1.337,0.947-1.337
		c0.422,0,1.055,1.006,1.516,1.737c0.867,1.374,1.943,3.086,3.988,3.086c1.994,0,3.48-1.663,4.797-3.131
		c0.473-0.528,1.177-1.312,1.514-1.494C31.339,19.704,32,19,32,18.143C32,17.242,31.271,16.513,30.37,16.513z"/>
</g>
</svg>
