<?xml version="1.0" encoding="iso-8859-1"?>
<!-- Generator: Adobe Illustrator 16.0.4, SVG Export Plug-In . SVG Version: 6.00 Build 0)  -->
<!DOCTYPE svg PUBLIC "-//W3C//DTD SVG 1.1//EN" "http://www.w3.org/Graphics/SVG/1.1/DTD/svg11.dtd">
<svg version="1.1" id="Layer_1" xmlns="http://www.w3.org/2000/svg" xmlns:xlink="http://www.w3.org/1999/xlink" x="0px" y="0px"
	 width="32.001px" height="32px" viewBox="0 -0.001 32.001 32" style="enable-background:new 0 -0.001 32.001 32;fill:#2B5D80;"
	 xml:space="preserve">
<path d="M29.824,13.778h-7.59c0.701-6.977,4.606-9.606,4.834-9.754c1.017-0.626,1.336-1.956,0.719-2.979
	c-0.625-1.028-1.961-1.351-2.989-0.732c-0.269,0.161-6.146,3.85-6.937,13.465H12.96C12.167,4.163,6.291,0.475,6.023,0.313
	c-1.021-0.616-2.34-0.291-2.966,0.72c-0.63,1.012-0.317,2.348,0.69,2.989c0.183,0.119,4.132,2.736,4.835,9.756H2.176
	C0.973,13.778,0,14.752,0,15.955c0,1.201,0.973,2.176,2.176,2.176h6.393c-0.73,6.221-4.487,7.361-4.634,7.4
	c-1.168,0.281-1.889,1.456-1.608,2.624c0.24,0.997,1.131,1.669,2.114,1.669c0.168,0,0.338-0.021,0.51-0.061
	c0.308-0.076,7.113-1.829,8.003-11.635h4.914c0.889,9.806,7.694,11.559,8.004,11.635c0.17,0.04,0.34,0.061,0.505,0.061
	c0.967,0,1.836-0.656,2.089-1.637c0.298-1.148-0.399-2.329-1.545-2.646c-0.176-0.049-3.937-1.189-4.667-7.41h7.571
	c1.202,0,2.176-0.975,2.176-2.176C32.001,14.752,31.027,13.778,29.824,13.778z"/>
</svg>
