<?xml version="1.0" encoding="iso-8859-1"?>
<!-- Generator: Adobe Illustrator 16.0.4, SVG Export Plug-In . SVG Version: 6.00 Build 0)  -->
<!DOCTYPE svg PUBLIC "-//W3C//DTD SVG 1.1//EN" "http://www.w3.org/Graphics/SVG/1.1/DTD/svg11.dtd">
<svg version="1.1" id="Layer_1" xmlns="http://www.w3.org/2000/svg" xmlns:xlink="http://www.w3.org/1999/xlink" x="0px" y="0px"
	 width="32px" height="32px" viewBox="0 0 32 32" style="enable-background:new 0 0 32 32;fill:#2B5D80;" xml:space="preserve">
<path d="M31.882,15.012c0.498-2.979-0.598-5.78-2.931-7.495c-1.225-0.9-2.631-1.364-3.889-1.354V4.659
	C25.062,0.672,21.77,0,19.691,0c-1.393,0-2.688,0.524-3.65,1.479c-0.002,0.002-0.003,0.004-0.005,0.006
	C15.015,0.511,13.662,0,12.347,0c-1.39,0-2.686,0.524-3.648,1.479C8.691,1.486,8.685,1.497,8.678,1.504
	C7.693,0.682,6.464,0.237,5.26,0.237c-1.392,0-2.688,0.524-3.65,1.479C0.876,2.445,0,3.766,0,5.914c0,0.979,0.792,1.771,1.772,1.771
	c0.979,0,1.772-0.792,1.772-1.771c0-1.979,1.312-2.133,1.715-2.133c0.843,0,1.827,0.558,1.827,2.133v14.99
	c0,0.979,0.793,1.771,1.772,1.771s1.772-0.793,1.772-1.771V5.677c0-1.979,1.544-2.129,1.968-2.129c0.424,0,1.877,0.113,1.877,2.41
	c0,2.871-0.045,14.946-0.045,14.946c0,0.979,0.792,1.771,1.772,1.771c0.979,0,1.772-0.793,1.772-1.771V5.677
	c0-1.979,1.312-2.132,1.715-2.132c0.843,0,1.828,0.557,1.828,2.132c0,0,0.051,16.173,0.049,17.225
	c-1.44,0.844-2.838,1.396-3.892,1.596c-0.962,0.182-1.595,1.108-1.414,2.07c0.161,0.85,0.904,1.443,1.74,1.443
	c0.108,0,0.22-0.012,0.33-0.031c1.422-0.27,3.403-1.045,5.418-2.277c1.896,0.971,4.487,1.439,5.799,1.627
	c0.956,0.129,1.867-0.537,2.004-1.504c0.138-0.97-0.534-1.867-1.504-2.006c-1.008-0.145-2.057-0.374-2.952-0.627
	C29.413,21.07,31.33,18.313,31.882,15.012z M25.12,20.193c0.002-0.781,0.005-1.646,0.009-2.548c0.01-2.867,0.021-6.071,0.021-7.956
	c0.398,0.02,1.146,0.219,1.877,0.819c0.662,0.543,1.718,1.775,1.359,3.918C28.02,16.628,26.734,18.593,25.12,20.193z"/>
</svg>
